<svg id="Capa_1" data-name="Capa 1" xmlns="http://www.w3.org/2000/svg" viewBox="0 0 512 488.25"><title>star</title><path d="M499.92,188.26,334.08,172.88l-65.88-153a13.29,13.29,0,0,0-24.41,0l-65.87,153L12.08,188.26a13.29,13.29,0,0,0-7.54,23.22L129.66,321.4,93,483.87a13.29,13.29,0,0,0,19.75,14.35l143.21-85,143.21,85A13.29,13.29,0,0,0,419,483.87L382.34,321.4,507.46,211.48A13.29,13.29,0,0,0,499.92,188.26Z" transform="translate(0 -11.88)" style="fill:#ffdc64"/><path d="M268.2,19.91a13.29,13.29,0,0,0-24.41,0l-65.87,153L12.08,188.26a13.29,13.29,0,0,0-7.54,23.22L129.66,321.4,93,483.87a13.29,13.29,0,0,0,19.75,14.35l32-19c4.42-182.1,89-310.34,156-383.7Z" transform="translate(0 -11.88)" style="fill:#ffc850"/></svg>