<svg width="10" height="68" viewBox="0 0 10 68" fill="none" xmlns="http://www.w3.org/2000/svg">
<path fill-rule="evenodd" clip-rule="evenodd" d="M3.60337 0.184711C2.93405 0.371029 2.42964 0.668193 1.88377 1.19794C1.04946 2.00745 0.53159 3.1755 0.191522 5.01489C0.0396403 5.8359 0.0249602 6.11226 0.0271084 8.10168C0.0290419 9.90728 0.063772 10.6601 0.226967 12.4371C0.578565 16.2658 1.04824 20.6884 1.84747 27.6976C2.8686 36.6525 2.98031 37.7321 3.49818 43.6518C3.7385 46.3987 3.9481 48.6853 3.96392 48.7329C4.00775 48.865 5.93065 48.8566 5.93065 48.7244C5.93065 48.6719 6.76775 40.2206 7.79082 29.9435C8.81389 19.6663 9.68751 10.7316 9.73219 10.0883C9.85071 8.38331 9.78397 5.77798 9.59607 4.7721C9.29059 3.1368 8.78059 2.04837 7.93776 1.23325C7.33911 0.654251 6.76603 0.337941 5.99846 0.162653C5.37088 0.0193425 4.15719 0.03051 3.60337 0.184711ZM3.70477 57.3185C2.08069 57.7005 0.66607 59.1146 0.167389 60.8547C-0.0161431 61.495 -0.0578908 62.9061 0.0879039 63.541C0.401549 64.9067 1.23457 65.9013 2.60086 66.5412C3.38447 66.9083 4.07119 67.0634 4.90643 67.0618C6.91247 67.0579 8.77135 66.0383 9.50541 64.5393C9.82693 63.8826 9.93055 63.5036 9.98805 62.7728C10.0622 61.8311 9.78662 60.6919 9.28342 59.8603C9.1526 59.6442 8.70726 59.1381 8.29372 58.7357C7.4708 57.9348 6.81301 57.5373 5.95614 57.323C5.41943 57.1887 4.26633 57.1864 3.70477 57.3185Z" fill="#F63D71"/>
</svg>
