<svg width="32" height="30" viewBox="0 0 32 30" fill="none" xmlns="http://www.w3.org/2000/svg">
<path fill-rule="evenodd" clip-rule="evenodd" d="M13.0502 5.01604L11.0284 10.0327L8.11063 10.4322C6.50616 10.6527 4.10328 10.8324 2.77089 10.8324C1.43914 10.8324 0.197875 11.0765 0.0137237 11.3753C-0.171064 11.6735 1.53217 13.4226 3.79933 15.2616C6.06585 17.1005 7.91501 18.935 7.90927 19.3384C7.9029 19.7417 7.33452 22.2224 6.6457 24.8508C5.95689 27.4793 5.38851 29.7012 5.38214 29.7891C5.33753 30.4391 7.27462 29.5712 10.713 27.3996C12.9323 25.9978 15.1166 24.8508 15.5665 24.8508C16.0164 24.8508 18.2007 25.9978 20.4201 27.3996C23.8584 29.5712 25.7955 30.4391 25.7509 29.7891C25.7445 29.7012 25.1761 27.4793 24.4873 24.8508C23.7985 22.2224 23.2301 19.7634 23.2237 19.3868C23.218 19.0096 25.0761 17.1898 27.3541 15.3419C29.6314 13.494 31.3347 11.7232 31.139 11.4072C30.9441 11.0911 29.6939 10.8324 28.3621 10.8324C27.0297 10.8324 24.6288 10.6527 23.0268 10.4329L20.1142 10.034L18.0427 5.01668C16.9034 2.2576 15.7691 0 15.5219 0C15.2747 0 14.1628 2.2576 13.0502 5.01604ZM17.4998 7.06719C18.2982 9.20181 19.2648 11.0637 19.6484 11.2045C20.032 11.3454 22.2871 11.678 24.6606 11.943L28.9751 12.4254L25.4571 15.2284C21.5696 18.3259 21.4377 18.7872 22.8943 24.2136C23.4117 26.1411 23.8386 27.7794 23.8425 27.8546C23.8469 27.9291 21.9914 26.8255 19.7198 25.4007L15.5888 22.8111L11.4362 25.4339C9.15181 26.8765 7.28609 27.9801 7.29055 27.8871C7.29437 27.794 7.7213 26.1411 8.23871 24.2136C9.69407 18.7904 9.55771 18.2966 5.72431 15.1405L2.25348 12.2833L6.75976 11.8647C9.23847 11.634 11.4795 11.3141 11.7408 11.1529C12.0014 10.9917 12.861 9.13299 13.6498 7.02258C14.4393 4.91281 15.3014 3.186 15.5665 3.186C15.8316 3.186 16.7014 4.93257 17.4998 7.06719Z" fill="#F63D71"/>
</svg>
