<svg width="30" height="30" viewBox="0 0 30 30" fill="none" xmlns="http://www.w3.org/2000/svg">
<path fill-rule="evenodd" clip-rule="evenodd" d="M11.2609 0.466603C3.9248 2.24235 -1.06481 9.86968 0.194542 17.3847C2.21193 29.4235 16.9421 34.2268 25.5192 25.6428C36.2905 14.8622 26.1033 -3.1255 11.2609 0.466603ZM18.4437 1.75993C28.6492 4.40161 32.1326 17.2278 24.6711 24.6907C16.7918 32.5719 3.3688 28.218 1.47616 17.1675C-0.17809 7.50704 8.87741 -0.716029 18.4437 1.75993ZM14.3376 6.77277C14.3376 7.55519 14.1286 7.78772 13.0425 8.21446C10.1227 9.36172 9.49267 13.2866 11.9914 14.7623C12.4714 15.0456 13.8218 15.5248 14.9924 15.8267C17.4211 16.4529 18.2669 17.0644 18.2669 18.194C18.2669 19.3966 17.7325 20.1443 16.5878 20.5435C14.4646 21.2837 12.6646 20.7633 12.0278 19.2253C11.7838 18.6364 11.3955 18.2853 10.9878 18.2853C10.4423 18.2853 10.3732 18.4307 10.5608 19.186C10.8624 20.4017 11.9105 21.4651 13.2396 21.904C14.1522 22.2049 14.3376 22.428 14.3376 23.2235C14.3376 23.962 14.4869 24.1805 14.9924 24.1805C15.498 24.1805 15.6473 23.962 15.6473 23.2235C15.6473 22.428 15.8327 22.2049 16.7453 21.904C18.5623 21.304 19.413 20.1318 19.413 18.228C19.413 16.803 19.2856 16.484 18.4503 15.8179C17.9211 15.3957 16.4633 14.7993 15.2112 14.4925C12.6915 13.8748 11.718 13.1448 11.718 11.8737C11.718 10.5797 13.3641 9.11511 14.8186 9.11511C16.0848 9.11511 17.612 10.2709 17.612 11.2292C17.612 11.5256 17.8979 11.7352 18.3023 11.7352C18.8828 11.7352 18.9588 11.5993 18.7787 10.8823C18.445 9.55167 17.668 8.56293 16.6136 8.12603C15.8598 7.81359 15.6473 7.51818 15.6473 6.78292C15.6473 6.05847 15.4957 5.84003 14.9924 5.84003C14.4908 5.84003 14.3376 6.05847 14.3376 6.77277Z" fill="#F63D71"/>
</svg>
