<svg width="49" height="49" viewBox="0 0 49 49" fill="none" xmlns="http://www.w3.org/2000/svg">
<path opacity="0.5" fill-rule="evenodd" clip-rule="evenodd" d="M17.4315 0.0642912C11.7375 0.554779 6.50293 3.59838 3.30613 8.27759C1.67836 10.6602 0.689059 13.1384 0.171795 16.1295C-0.0568973 17.452 -0.0573763 20.631 0.171028 21.9634C1.21629 28.0627 4.76288 33.026 10.1144 35.8785C16.0202 39.0266 23.4047 38.7665 29.0849 35.2105C29.4982 34.9517 29.8689 34.74 29.9085 34.74C29.9481 34.74 33.1935 37.9485 37.1206 41.87C43.3342 48.075 44.297 49 44.5419 49C44.7806 49 45.1392 48.6844 46.9116 46.9138C48.684 45.1433 49 44.7852 49 44.5467C49 44.302 48.074 43.3403 41.8624 37.1333C37.9366 33.2104 34.7247 29.9754 34.7247 29.9443C34.7247 29.9132 34.9695 29.4829 35.2687 28.9881C41.1089 19.3293 37.5006 6.9403 27.3954 1.95542C24.3642 0.460031 20.7658 -0.222919 17.4315 0.0642912ZM21.9261 4.77613C27.6856 5.99933 32.0191 10.3274 33.3051 16.1407C33.4816 16.9384 33.5134 17.3825 33.5134 19.0444C33.5134 20.7102 33.4818 21.1495 33.3037 21.9551C32.3313 26.3527 29.6054 29.9459 25.7188 31.9532C24.4376 32.6149 23.0006 33.1133 21.647 33.3653C20.2153 33.6319 17.5001 33.6088 16.1513 33.3186C12.2992 32.4898 9.04959 30.3197 6.90954 27.1468C6.33384 26.2933 5.49198 24.5871 5.1783 23.6382C4.65031 22.041 4.50583 21.0543 4.50583 19.0444C4.50583 17.4627 4.53908 17.0249 4.72341 16.1732C5.5577 12.3202 7.71739 9.09739 10.9013 6.95456C11.7446 6.38694 13.4424 5.55411 14.4376 5.21972C15.1298 4.98725 16.6125 4.65382 17.3836 4.55744C18.2625 4.44748 20.999 4.57926 21.9261 4.77613ZM17.8626 14.5463V17.8959H14.5094H11.1561V19.0444V20.1928H14.5094H17.8626V23.5425V26.8922H19.0123H20.162V23.5425V20.1928H23.5153H26.8685V19.0444V17.8959H23.5153H20.162V14.5463V11.1966H19.0123H17.8626V14.5463Z" fill="#F63D71"/>
</svg>
