<svg width="24" height="30" viewBox="0 0 24 30" fill="none" xmlns="http://www.w3.org/2000/svg">
<path fill-rule="evenodd" clip-rule="evenodd" d="M0.19625 2.03125C0.34625 3.58812 0.72 4.10938 1.79812 4.2625C3.03312 4.4375 3.20437 4.82688 3.20437 7.45938C3.20437 10.7131 4.72375 13.3544 7.01438 14.0813C8.18625 14.4538 8.08187 14.68 5.74812 16.835C3.41437 18.9888 3.20437 19.4456 3.20437 22.3606C3.20437 25.18 3.04562 25.5606 1.79812 25.7375C0.72 25.8906 0.34625 26.4119 0.19625 27.9688L0 30H11.9544H23.9087L23.7125 27.9688C23.5662 26.45 23.1812 25.8894 22.185 25.7475C21.0481 25.5856 20.8106 25.0419 20.5612 22.0344C20.3075 18.97 19.995 18.2819 18.1669 16.755L16.0644 15L18.1669 13.245C19.995 11.7181 20.3075 11.03 20.5612 7.96562C20.8106 4.95813 21.0481 4.41437 22.185 4.2525C23.1812 4.11062 23.5662 3.55 23.7125 2.03125L23.9087 0H11.9544H0L0.19625 2.03125ZM22.5794 2.1875C22.5794 2.98438 20.9819 3.125 11.9544 3.125C2.92687 3.125 1.32937 2.98438 1.32937 2.1875C1.32937 1.39062 2.92687 1.25 11.9544 1.25C20.9819 1.25 22.5794 1.39062 22.5794 2.1875ZM19.4544 7.21562C19.4544 10.1669 18.5575 11.5287 15.0794 13.8594L13.5169 14.9069L15.0794 16.0287C18.6344 18.5806 19.4544 19.8469 19.4544 22.7844C19.4544 26.075 18.6962 26.4469 17.5637 23.7119C16.74 21.7231 13.3787 18.75 11.9544 18.75C10.53 18.75 7.16875 21.7231 6.345 23.7119C5.2125 26.4469 4.45437 26.075 4.45437 22.7844C4.45437 19.8431 5.28312 18.5763 8.82938 16.0938L10.3919 15L8.82938 13.9062C5.28312 11.4237 4.45437 10.1569 4.45437 7.21562V4.375H11.9544H19.4544V7.21562ZM9.415 11.9344C11.0706 13.3125 13.4025 13.1419 15.0569 11.5212C15.8537 10.7413 15.4494 10.6275 11.9319 10.6456L7.89187 10.6669L9.415 11.9344ZM22.5794 27.8125C22.5794 28.6094 20.9819 28.75 11.9544 28.75C2.92687 28.75 1.32937 28.6094 1.32937 27.8125C1.32937 27.0156 2.92687 26.875 11.9544 26.875C20.9819 26.875 22.5794 27.0156 22.5794 27.8125Z" fill="#F63D71"/>
</svg>
